<svg width="397" height="190" viewBox="0 0 397 190" fill="none" xmlns="http://www.w3.org/2000/svg">
<path fill-rule="evenodd" clip-rule="evenodd" d="M129.82 108.546C130.466 104.823 130.802 100.994 130.802 97.087C130.802 88.6741 129.243 80.6254 126.397 73.2142C125.991 73.7447 125.528 74.2692 125.009 74.7878C122.735 77.1885 120.208 78.3889 117.428 78.3889C115.659 78.3889 114.332 77.8203 113.448 76.6831C112.564 75.5459 112.121 74.3456 112.121 73.082C112.121 70.555 113.322 68.0911 115.722 65.6904C117.409 63.9149 119.158 62.7631 120.97 62.2351C109.247 43.175 88.1983 30.4658 64.1808 30.4658C42.0187 30.4658 22.384 41.2873 10.2726 57.9345C15.9639 55.1865 22.0984 53.8125 28.6761 53.8125C39.4328 53.8125 48.3407 57.9583 55.3997 66.25V55.8294H80.2746V59.0228C79.4903 59.0228 78.6499 59.1909 77.7535 59.527C76.9692 59.8632 76.577 60.3114 76.577 60.8716V109.754C78.7543 107.755 80.8732 105.639 82.9338 103.407C86.0926 100.122 89.0619 97.0891 91.8417 94.3093C94.6214 91.4032 97.0853 89.3816 99.2333 88.2444C101.508 86.9809 103.34 86.1596 104.73 85.7805C106.12 85.4014 107.257 85.2119 108.141 85.2119C109.531 85.2119 110.542 85.4646 111.174 85.97C111.805 86.3491 111.932 86.7913 111.553 87.2967C109.405 89.4447 107.257 92.2245 105.109 95.636C103.087 98.9212 101.192 102.396 99.4228 106.06C97.6539 109.724 96.2008 113.199 95.0637 116.484C94.0528 119.769 93.5474 122.549 93.5474 124.824C93.5474 127.982 94.811 129.562 97.338 129.562C99.7387 129.562 102.834 128.488 106.625 126.34C110.542 124.065 114.585 121.222 118.755 117.811C122.711 114.669 126.4 111.581 129.82 108.546ZM128.99 112.585C125.749 115.492 122.211 118.497 118.376 121.602C113.195 125.771 107.952 129.309 102.645 132.215C97.4644 135.121 92.7261 136.574 88.4301 136.574C83.2497 136.574 79.7118 135.5 77.8165 133.352C77.7624 133.283 77.7092 133.213 77.6568 133.143H55.3997V123.899C48.3407 131.518 39.4328 135.328 28.6761 135.328C20.4965 135.328 13.2694 133.703 6.99465 130.454C6.752 130.322 6.51143 130.187 6.27295 130.05C17.7418 150.155 39.3786 163.708 64.1808 163.708C95.6389 163.708 122.005 141.905 128.99 112.585ZM76.577 118.556V113.199C77.2018 112.643 77.8677 112.032 78.5746 111.367C80.849 109.345 83.2497 107.26 85.7767 105.113C84.1341 107.008 82.6179 108.777 81.228 110.419C79.9645 112.062 78.9537 113.515 78.1955 114.779C77.7529 115.553 77.2134 116.812 76.577 118.556ZM31.1972 117.512C35.7912 117.512 39.881 116.504 43.4666 114.487C47.1642 112.358 50.0214 109.613 52.0383 106.251C54.0552 102.778 55.0636 99.0803 55.0636 95.1586C55.0636 88.4356 52.8226 82.8892 48.3407 78.5193C43.9708 74.1494 38.2563 71.9645 31.1972 71.9645C24.3622 71.9645 18.7038 74.0934 14.2218 78.3512C9.8519 82.6091 7.66694 88.0435 7.66694 94.6543C7.66694 101.601 9.90792 107.148 14.3899 111.294C18.9839 115.439 24.5863 117.512 31.1972 117.512Z" fill="#24C26D"/>
<circle cx="130.804" cy="41.8475" r="11.3817" fill="#24C26D"/>
<path d="M181.93 59.4383C184.073 59.4383 185.837 59.7954 187.223 60.5095C188.61 61.1817 189.66 61.9168 190.374 62.715C191.13 63.5132 191.592 64.0593 191.76 64.3534H192.264V60.0684H201.843V93.4658H192.264V89.1809H191.76C191.592 89.4749 191.13 90.0211 190.374 90.8192C189.66 91.6174 188.61 92.3736 187.223 93.0877C185.837 93.7599 184.073 94.096 181.93 94.096C179.452 94.096 177.288 93.6129 175.44 92.6466C173.633 91.6384 172.121 90.3151 170.903 88.6768C169.684 86.9964 168.76 85.127 168.13 83.0685C167.542 81.0101 167.248 78.9096 167.248 76.7671C167.248 74.6246 167.542 72.5242 168.13 70.4657C168.76 68.4073 169.684 66.5589 170.903 64.9205C172.121 63.2401 173.633 61.9168 175.44 60.9506C177.288 59.9424 179.452 59.4383 181.93 59.4383ZM184.703 67.189C182.98 67.189 181.531 67.6721 180.355 68.6383C179.221 69.5625 178.359 70.7598 177.771 72.2301C177.225 73.7004 176.952 75.2128 176.952 76.7671C176.952 78.3215 177.225 79.8338 177.771 81.3041C178.359 82.7744 179.221 83.9927 180.355 84.9589C181.531 85.8831 182.98 86.3452 184.703 86.3452C186.425 86.3452 187.853 85.8831 188.988 84.9589C190.164 83.9927 191.025 82.7744 191.571 81.3041C192.159 79.8338 192.453 78.3215 192.453 76.7671C192.453 75.2128 192.159 73.7004 191.571 72.2301C191.025 70.7598 190.164 69.5625 188.988 68.6383C187.853 67.6721 186.425 67.189 184.703 67.189ZM209.98 105.754V60.0684H219.558V64.3534H219.999C220.209 64.0593 220.671 63.5132 221.385 62.715C222.141 61.9168 223.213 61.1817 224.599 60.5095C225.985 59.7954 227.75 59.4383 229.892 59.4383C232.371 59.4383 234.513 59.9424 236.32 60.9506C238.168 61.9168 239.701 63.2401 240.92 64.9205C242.138 66.5589 243.041 68.4073 243.629 70.4657C244.259 72.5242 244.574 74.6246 244.574 76.7671C244.574 78.9096 244.259 81.0101 243.629 83.0685C243.041 85.127 242.138 86.9964 240.92 88.6768C239.701 90.3151 238.168 91.6384 236.32 92.6466C234.513 93.6129 232.371 94.096 229.892 94.096C227.75 94.096 225.985 93.7599 224.599 93.0877C223.213 92.3736 222.141 91.6174 221.385 90.8192C220.671 90.0211 220.209 89.4749 219.999 89.1809H219.558V105.754H209.98ZM219.369 76.7671C219.369 78.3215 219.642 79.8338 220.188 81.3041C220.776 82.7744 221.637 83.9927 222.772 84.9589C223.948 85.8831 225.397 86.3452 227.12 86.3452C228.842 86.3452 230.27 85.8831 231.404 84.9589C232.581 83.9927 233.442 82.7744 233.988 81.3041C234.576 79.8338 234.87 78.3215 234.87 76.7671C234.87 75.2128 234.576 73.7004 233.988 72.2301C233.442 70.7598 232.581 69.5625 231.404 68.6383C230.27 67.6721 228.842 67.189 227.12 67.189C225.397 67.189 223.948 67.6721 222.772 68.6383C221.637 69.5625 220.776 70.7598 220.188 72.2301C219.642 73.7004 219.369 75.2128 219.369 76.7671ZM251.702 105.754V60.0684H261.28V64.3534H261.721C261.931 64.0593 262.393 63.5132 263.107 62.715C263.864 61.9168 264.935 61.1817 266.321 60.5095C267.707 59.7954 269.472 59.4383 271.614 59.4383C274.093 59.4383 276.235 59.9424 278.042 60.9506C279.89 61.9168 281.423 63.2401 282.642 64.9205C283.86 66.5589 284.763 68.4073 285.351 70.4657C285.981 72.5242 286.297 74.6246 286.297 76.7671C286.297 78.9096 285.981 81.0101 285.351 83.0685C284.763 85.127 283.86 86.9964 282.642 88.6768C281.423 90.3151 279.89 91.6384 278.042 92.6466C276.235 93.6129 274.093 94.096 271.614 94.096C269.472 94.096 267.707 93.7599 266.321 93.0877C264.935 92.3736 263.864 91.6174 263.107 90.8192C262.393 90.0211 261.931 89.4749 261.721 89.1809H261.28V105.754H251.702ZM261.091 76.7671C261.091 78.3215 261.364 79.8338 261.91 81.3041C262.498 82.7744 263.359 83.9927 264.494 84.9589C265.67 85.8831 267.119 86.3452 268.842 86.3452C270.564 86.3452 271.992 85.8831 273.127 84.9589C274.303 83.9927 275.164 82.7744 275.71 81.3041C276.298 79.8338 276.592 78.3215 276.592 76.7671C276.592 75.2128 276.298 73.7004 275.71 72.2301C275.164 70.7598 274.303 69.5625 273.127 68.6383C271.992 67.6721 270.564 67.189 268.842 67.189C267.119 67.189 265.67 67.6721 264.494 68.6383C263.359 69.5625 262.498 70.7598 261.91 72.2301C261.364 73.7004 261.091 75.2128 261.091 76.7671ZM307.406 94.0199C304.931 94.0199 302.77 93.5951 300.923 92.7455C299.076 91.8589 297.543 90.6953 296.324 89.2546C295.105 87.777 294.181 86.1332 293.553 84.3231C292.962 82.513 292.667 80.666 292.667 78.782C292.667 76.8981 292.962 75.0511 293.553 73.241C294.181 71.4309 295.105 69.8055 296.324 68.3649C297.543 66.8873 299.076 65.7236 300.923 64.874C302.77 63.9874 304.931 63.5442 307.406 63.5442C309.844 63.5442 311.857 63.9136 313.446 64.6524C315.071 65.3542 316.364 66.2408 317.324 67.3121C318.285 68.3833 319.005 69.4546 319.485 70.5259C319.966 71.5971 320.261 72.5022 320.372 73.241C320.52 73.9798 320.594 74.3492 320.594 74.3492H314.609C314.609 74.3492 314.517 74.0722 314.332 73.518C314.184 72.9639 313.87 72.3175 313.39 71.5787C312.91 70.8399 312.19 70.1934 311.229 69.6393C310.306 69.0852 309.05 68.8082 307.461 68.8082C305.577 68.8082 304.007 69.2884 302.751 70.2488C301.495 71.1723 300.535 72.3914 299.87 73.9059C299.242 75.4205 298.928 77.0458 298.928 78.782C298.928 80.5182 299.242 82.1436 299.87 83.6582C300.535 85.1727 301.495 86.4102 302.751 87.3707C304.007 88.2942 305.577 88.7559 307.461 88.7559C309.05 88.7559 310.306 88.4789 311.229 87.9248C312.19 87.3707 312.91 86.7242 313.39 85.9854C313.87 85.2466 314.184 84.6001 314.332 84.046C314.517 83.4919 314.609 83.2149 314.609 83.2149H320.594C320.594 83.2149 320.52 83.5843 320.372 84.3231C320.261 85.0619 319.966 85.9669 319.485 87.0382C319.005 88.1095 318.285 89.1807 317.324 90.252C316.364 91.3233 315.071 92.2283 313.446 92.9671C311.857 93.669 309.844 94.0199 307.406 94.0199ZM331.352 59.0559C330.207 59.0559 329.265 58.668 328.526 57.8923C327.788 57.1165 327.418 56.2115 327.418 55.1772C327.418 54.1059 327.788 53.2009 328.526 52.4621C329.265 51.6863 330.207 51.2984 331.352 51.2984C332.497 51.2984 333.439 51.6863 334.178 52.4621C334.954 53.2009 335.342 54.1059 335.342 55.1772C335.342 56.2484 334.954 57.172 334.178 57.9477C333.439 58.6865 332.497 59.0559 331.352 59.0559ZM328.249 93.4658V64.0983H334.566V93.4658H328.249ZM355.533 94.0199C353.206 94.0199 351.34 93.5951 349.936 92.7455C348.533 91.8959 347.517 90.7692 346.889 89.3654C346.298 87.9248 346.002 86.3733 346.002 84.711V69.196H340.849V64.0983H346.002V56.7841H352.319V64.0983H359.19V69.196H352.319V84.6001C352.319 87.3707 353.852 88.7559 356.918 88.7559C357.694 88.7559 358.414 88.7005 359.079 88.5897C359.744 88.4789 360.077 88.4235 360.077 88.4235V93.5766C360.077 93.5766 359.615 93.6505 358.691 93.7983C357.805 93.946 356.752 94.0199 355.533 94.0199ZM367.66 104.271C366.736 104.271 365.979 104.234 365.388 104.16C364.797 104.086 364.501 104.049 364.501 104.049V98.7852C364.501 98.7852 364.797 98.8037 365.388 98.8406C365.979 98.9145 366.625 98.9515 367.327 98.9515C369.359 98.9515 371.021 98.5636 372.314 97.7878C373.644 97.049 374.771 95.7377 375.694 93.8537L364.501 64.0983H370.929L378.853 86.0962L386.776 64.0983H393.315L382.233 93.1334C380.755 96.9382 378.871 99.7457 376.581 101.556C374.29 103.366 371.317 104.271 367.66 104.271Z" fill="#242424"/>
<path d="M168.769 122.849C167.992 122.849 167.349 122.594 166.839 122.084C166.351 121.573 166.107 120.964 166.107 120.254C166.107 119.544 166.351 118.934 166.839 118.424C167.349 117.914 167.992 117.659 168.769 117.659C169.545 117.659 170.188 117.914 170.698 118.424C171.208 118.934 171.463 119.544 171.463 120.254C171.463 120.964 171.208 121.573 170.698 122.084C170.188 122.594 169.545 122.849 168.769 122.849ZM166.573 143.207V125.576H170.997V143.207H166.573ZM188.234 143.207V125.576H192.658V128.105H192.858C193.035 127.794 193.312 127.417 193.69 126.974C194.067 126.508 194.588 126.109 195.253 125.776C195.918 125.421 196.761 125.244 197.781 125.244C199.134 125.244 200.243 125.554 201.108 126.175C201.995 126.774 202.649 127.572 203.07 128.57C203.514 129.568 203.736 130.644 203.736 131.797V143.207H199.311V132.396C199.311 131.442 199.045 130.622 198.513 129.934C197.981 129.247 197.182 128.903 196.118 128.903C195.297 128.903 194.632 129.114 194.122 129.535C193.612 129.934 193.235 130.455 192.991 131.098C192.769 131.742 192.658 132.418 192.658 133.128V143.207H188.234ZM222.559 143.207V129.136H219.731V125.576H222.559V123.946C222.559 123.281 222.647 122.583 222.825 121.851C223.002 121.097 223.302 120.398 223.723 119.755C224.166 119.112 224.776 118.591 225.552 118.192C226.351 117.792 227.349 117.593 228.546 117.593C229.212 117.593 229.755 117.648 230.176 117.759C230.62 117.848 230.842 117.892 230.842 117.892V121.119C230.842 121.119 230.697 121.097 230.409 121.052C230.121 120.986 229.81 120.953 229.478 120.953C228.524 120.953 227.87 121.23 227.515 121.784C227.16 122.339 226.983 123.059 226.983 123.946V125.576H230.742V129.136H226.983V143.207H222.559ZM254.523 143.54C252.594 143.54 250.953 143.107 249.6 142.242C248.247 141.377 247.216 140.258 246.506 138.883C245.819 137.485 245.475 135.988 245.475 134.392C245.475 132.795 245.819 131.309 246.506 129.934C247.216 128.537 248.247 127.406 249.6 126.541C250.953 125.676 252.594 125.244 254.523 125.244C256.475 125.244 258.116 125.676 259.447 126.541C260.799 127.406 261.82 128.537 262.507 129.934C263.217 131.309 263.572 132.795 263.572 134.392C263.572 135.988 263.217 137.485 262.507 138.883C261.82 140.258 260.799 141.377 259.447 142.242C258.116 143.107 256.475 143.54 254.523 143.54ZM254.523 139.847C255.521 139.847 256.353 139.592 257.018 139.082C257.706 138.572 258.227 137.907 258.582 137.086C258.937 136.243 259.114 135.345 259.114 134.392C259.114 133.416 258.937 132.518 258.582 131.697C258.227 130.877 257.706 130.211 257.018 129.701C256.353 129.191 255.521 128.936 254.523 128.936C253.548 128.936 252.716 129.191 252.029 129.701C251.341 130.211 250.82 130.877 250.465 131.697C250.11 132.518 249.933 133.416 249.933 134.392C249.933 135.345 250.11 136.243 250.465 137.086C250.82 137.907 251.341 138.572 252.029 139.082C252.716 139.592 253.548 139.847 254.523 139.847ZM287.708 143.54C286.511 143.54 285.524 143.362 284.748 143.007C283.971 142.653 283.361 142.187 282.918 141.61C282.497 141.034 282.197 140.402 282.02 139.714C281.842 139.027 281.754 138.35 281.754 137.685V129.136H278.727V125.576H281.754V121.185H286.178V125.576H290.137V129.136H286.178V137.585C286.178 139.16 287.065 139.947 288.839 139.947C289.261 139.947 289.649 139.925 290.003 139.881C290.38 139.814 290.569 139.781 290.569 139.781V143.24C290.569 143.24 290.281 143.285 289.704 143.373C289.15 143.484 288.484 143.54 287.708 143.54ZM314.948 143.54C313.44 143.54 312.132 143.285 311.023 142.775C309.936 142.242 309.027 141.544 308.295 140.679C307.586 139.792 307.053 138.805 306.698 137.718C306.344 136.632 306.166 135.523 306.166 134.392C306.166 133.261 306.333 132.163 306.665 131.098C307.02 130.012 307.541 129.025 308.229 128.138C308.938 127.251 309.837 126.552 310.923 126.042C312.01 125.51 313.296 125.244 314.782 125.244C316.379 125.244 317.787 125.599 319.007 126.308C320.226 127.018 321.18 128.06 321.867 129.435C322.555 130.788 322.899 132.473 322.899 134.492V135.623H310.624C310.69 136.82 311.101 137.862 311.855 138.749C312.609 139.614 313.64 140.047 314.948 140.047C315.702 140.047 316.323 139.925 316.811 139.681C317.299 139.437 317.676 139.16 317.942 138.849C318.208 138.517 318.397 138.239 318.508 138.018C318.619 137.774 318.674 137.652 318.674 137.652H322.766C322.766 137.652 322.71 137.851 322.599 138.251C322.488 138.628 322.278 139.115 321.967 139.714C321.679 140.291 321.246 140.878 320.67 141.477C320.093 142.054 319.339 142.542 318.408 142.941C317.476 143.34 316.323 143.54 314.948 143.54ZM310.624 132.728H318.641C318.574 131.353 318.164 130.333 317.41 129.668C316.656 129.003 315.769 128.67 314.749 128.67C313.618 128.67 312.675 129.036 311.921 129.768C311.167 130.478 310.735 131.464 310.624 132.728ZM347.996 143.54C346.487 143.54 345.168 143.285 344.037 142.775C342.906 142.242 341.963 141.544 341.209 140.679C340.455 139.792 339.89 138.805 339.513 137.718C339.158 136.632 338.981 135.523 338.981 134.392C338.981 133.261 339.158 132.152 339.513 131.065C339.89 129.979 340.444 129.003 341.176 128.138C341.93 127.251 342.873 126.552 344.004 126.042C345.135 125.51 346.465 125.244 347.996 125.244C349.504 125.244 350.757 125.466 351.754 125.909C352.752 126.353 353.54 126.907 354.116 127.572C354.715 128.238 355.159 128.903 355.447 129.568C355.735 130.211 355.924 130.755 356.012 131.198C356.101 131.642 356.146 131.864 356.146 131.864H351.987C351.987 131.864 351.943 131.719 351.854 131.431C351.766 131.121 351.588 130.766 351.322 130.367C351.056 129.967 350.657 129.613 350.124 129.302C349.614 128.992 348.927 128.836 348.062 128.836C347.042 128.836 346.177 129.103 345.467 129.635C344.78 130.145 344.259 130.821 343.904 131.664C343.549 132.507 343.372 133.416 343.372 134.392C343.372 135.368 343.549 136.277 343.904 137.119C344.259 137.962 344.78 138.65 345.467 139.182C346.177 139.692 347.042 139.947 348.062 139.947C348.927 139.947 349.614 139.792 350.124 139.481C350.657 139.171 351.056 138.816 351.322 138.417C351.588 138.018 351.766 137.674 351.854 137.386C351.943 137.075 351.987 136.92 351.987 136.92H356.146C356.146 136.92 356.101 137.142 356.012 137.585C355.924 138.029 355.735 138.583 355.447 139.248C355.159 139.892 354.715 140.546 354.116 141.211C353.54 141.876 352.752 142.431 351.754 142.874C350.757 143.318 349.504 143.54 347.996 143.54ZM372.979 143.207V117.925H377.403V128.105H377.602C377.78 127.794 378.057 127.417 378.434 126.974C378.811 126.508 379.332 126.109 379.998 125.776C380.663 125.421 381.506 125.244 382.526 125.244C383.878 125.244 384.987 125.554 385.852 126.175C386.739 126.774 387.393 127.572 387.815 128.57C388.258 129.568 388.48 130.644 388.48 131.797V143.207H384.056V132.396C384.056 131.442 383.79 130.622 383.258 129.934C382.725 129.247 381.927 128.903 380.862 128.903C380.042 128.903 379.377 129.114 378.866 129.535C378.356 129.934 377.979 130.455 377.735 131.098C377.514 131.742 377.403 132.418 377.403 133.128V143.207H372.979Z" fill="#242424"/>
</svg>
